<mxfile host="Electron" modified="2024-02-28T10:58:48.548Z" agent="Mozilla/5.0 (Windows NT 10.0; Win64; x64) AppleWebKit/537.36 (KHTML, like Gecko) draw.io/23.1.5 Chrome/120.0.6099.109 Electron/28.1.0 Safari/537.36" etag="iSsqDP2FE3o3U9DV_iJy" version="23.1.5" type="device">
  <diagram name="PÃ¡gina-1" id="8a7tAf_y6ZLoV1fNxLT-">
    <mxGraphModel dx="1635" dy="740" grid="0" gridSize="10" guides="1" tooltips="1" connect="1" arrows="1" fold="1" page="0" pageScale="1" pageWidth="1169" pageHeight="827" background="#FFFFFF" math="0" shadow="0">
      <root>
        <mxCell id="0" />
        <mxCell id="1" parent="0" />
        <mxCell id="m5CR8sbhtSTVhbRc3k3T-5" value="Factura" style="swimlane;fontStyle=1;childLayout=stackLayout;horizontal=1;startSize=26;fillColor=#008796;horizontalStack=0;resizeParent=1;resizeParentMax=0;resizeLast=0;collapsible=1;marginBottom=0;whiteSpace=wrap;html=1;points=[[0,0,0,0,0],[0,0.25,0,0,0],[0,0.5,0,0,0],[0,0.75,0,0,0],[0,1,0,0,0],[0.25,0,0,0,0],[0.25,1,0,0,0],[0.5,0,0,0,0],[0.5,1,0,0,0],[0.75,0,0,0,0],[0.75,1,0,0,0],[1,0,0,0,0],[1,0.25,0,0,0],[1,0.5,0,0,0],[1,0.75,0,0,0],[1,1,0,0,0]];fontColor=#F7FCFC;strokeColor=#000000;fontSize=15;strokeWidth=2;swimlaneFillColor=#F7FCFC;fontFamily=Verdana;" parent="1" vertex="1">
          <mxGeometry x="283" y="120" width="337" height="270" as="geometry" />
        </mxCell>
        <mxCell id="m5CR8sbhtSTVhbRc3k3T-6" value="codFactura: int" style="text;strokeColor=none;fillColor=none;align=left;verticalAlign=top;spacingLeft=4;spacingRight=4;overflow=hidden;rotatable=0;points=[[0,0.5],[1,0.5]];portConstraint=eastwest;whiteSpace=wrap;html=1;fontColor=#000000;fontSize=15;fontFamily=Verdana;" parent="m5CR8sbhtSTVhbRc3k3T-5" vertex="1">
          <mxGeometry y="26" width="337" height="26" as="geometry" />
        </mxCell>
        <mxCell id="m5CR8sbhtSTVhbRc3k3T-7" value="fechaEmision: date" style="text;strokeColor=none;fillColor=none;align=left;verticalAlign=top;spacingLeft=4;spacingRight=4;overflow=hidden;rotatable=0;points=[[0,0.5],[1,0.5]];portConstraint=eastwest;whiteSpace=wrap;html=1;fontColor=#000000;fontSize=15;fontFamily=Verdana;" parent="m5CR8sbhtSTVhbRc3k3T-5" vertex="1">
          <mxGeometry y="52" width="337" height="26" as="geometry" />
        </mxCell>
        <object label="fechaVencimiento: date" Total="" id="fgJ_T-vyC5k4SfeZIv40-8">
          <mxCell style="text;strokeColor=none;fillColor=none;align=left;verticalAlign=top;spacingLeft=4;spacingRight=4;overflow=hidden;rotatable=0;points=[[0,0.5],[1,0.5]];portConstraint=eastwest;whiteSpace=wrap;html=1;fontColor=#000000;fontSize=15;fontFamily=Verdana;" parent="m5CR8sbhtSTVhbRc3k3T-5" vertex="1">
            <mxGeometry y="78" width="337" height="26" as="geometry" />
          </mxCell>
        </object>
        <object label="total: float" Total="" id="fgJ_T-vyC5k4SfeZIv40-2">
          <mxCell style="text;strokeColor=none;fillColor=none;align=left;verticalAlign=top;spacingLeft=4;spacingRight=4;overflow=hidden;rotatable=0;points=[[0,0.5],[1,0.5]];portConstraint=eastwest;whiteSpace=wrap;html=1;fontColor=#000000;fontSize=15;fontFamily=Verdana;" parent="m5CR8sbhtSTVhbRc3k3T-5" vertex="1">
            <mxGeometry y="104" width="337" height="26" as="geometry" />
          </mxCell>
        </object>
        <object label="estado: EnEstado" Total="" id="fgJ_T-vyC5k4SfeZIv40-3">
          <mxCell style="text;strokeColor=none;fillColor=none;align=left;verticalAlign=top;spacingLeft=4;spacingRight=4;overflow=hidden;rotatable=0;points=[[0,0.5],[1,0.5]];portConstraint=eastwest;whiteSpace=wrap;html=1;fontColor=#000000;fontSize=15;fontFamily=Verdana;" parent="m5CR8sbhtSTVhbRc3k3T-5" vertex="1">
            <mxGeometry y="130" width="337" height="26" as="geometry" />
          </mxCell>
        </object>
        <object label="metodoDePago: EnMetodosDePago" Total="" id="fgJ_T-vyC5k4SfeZIv40-6">
          <mxCell style="text;strokeColor=none;fillColor=none;align=left;verticalAlign=top;spacingLeft=4;spacingRight=4;overflow=hidden;rotatable=0;points=[[0,0.5],[1,0.5]];portConstraint=eastwest;whiteSpace=wrap;html=1;fontColor=#000000;fontSize=15;fontFamily=Verdana;" parent="m5CR8sbhtSTVhbRc3k3T-5" vertex="1">
            <mxGeometry y="156" width="337" height="26" as="geometry" />
          </mxCell>
        </object>
        <object label="detallesDeLaFactura: DetallesFactura" Total="" id="fgJ_T-vyC5k4SfeZIv40-9">
          <mxCell style="text;strokeColor=none;fillColor=none;align=left;verticalAlign=top;spacingLeft=4;spacingRight=4;overflow=hidden;rotatable=0;points=[[0,0.5],[1,0.5]];portConstraint=eastwest;whiteSpace=wrap;html=1;fontColor=#000000;fontSize=15;fontFamily=Verdana;" parent="m5CR8sbhtSTVhbRc3k3T-5" vertex="1">
            <mxGeometry y="182" width="337" height="26" as="geometry" />
          </mxCell>
        </object>
        <mxCell id="m5CR8sbhtSTVhbRc3k3T-3" value="" style="line;strokeWidth=4;fillColor=none;align=left;verticalAlign=middle;spacingTop=-1;spacingLeft=3;spacingRight=3;rotatable=0;labelPosition=right;points=[];portConstraint=eastwest;strokeColor=inherit;fontColor=#000000;fontSize=15;fontFamily=Verdana;" parent="m5CR8sbhtSTVhbRc3k3T-5" vertex="1">
          <mxGeometry y="208" width="337" height="2" as="geometry" />
        </mxCell>
        <mxCell id="m5CR8sbhtSTVhbRc3k3T-4" value="AplicarDescuento(cantidadEquipos)" style="text;strokeColor=none;fillColor=none;align=left;verticalAlign=top;spacingLeft=4;spacingRight=4;overflow=hidden;rotatable=0;points=[[0,0.5],[1,0.5]];portConstraint=eastwest;whiteSpace=wrap;html=1;fontColor=#000000;fontSize=15;fontFamily=Verdana;" parent="m5CR8sbhtSTVhbRc3k3T-5" vertex="1">
          <mxGeometry y="210" width="337" height="30" as="geometry" />
        </mxCell>
        <mxCell id="KvDCw4Us0EKXB_KUAqWt-22" value="generar_reporte()" style="text;strokeColor=none;fillColor=none;align=left;verticalAlign=top;spacingLeft=4;spacingRight=4;overflow=hidden;rotatable=0;points=[[0,0.5],[1,0.5]];portConstraint=eastwest;whiteSpace=wrap;html=1;fontColor=#000000;fontSize=15;fontFamily=Verdana;" vertex="1" parent="m5CR8sbhtSTVhbRc3k3T-5">
          <mxGeometry y="240" width="337" height="30" as="geometry" />
        </mxCell>
        <mxCell id="fgJ_T-vyC5k4SfeZIv40-4" value="&lt;p style=&quot;margin: 4px 0px 0px; text-align: center; font-size: 15px;&quot;&gt;&lt;i style=&quot;font-size: 15px;&quot;&gt;&amp;lt;&amp;lt;enumeration&amp;gt;&amp;gt;&lt;/i&gt;&lt;br style=&quot;font-size: 15px;&quot;&gt;&lt;b style=&quot;font-size: 15px;&quot;&gt;EnEstado&lt;/b&gt;&lt;/p&gt;&lt;hr style=&quot;font-size: 15px;&quot;&gt;&lt;p style=&quot;margin: 0px 0px 0px 4px; font-size: 15px;&quot;&gt;CELULAR&lt;/p&gt;&lt;p style=&quot;margin: 0px 0px 0px 4px; font-size: 15px;&quot;&gt;CORRREO&lt;/p&gt;&lt;p style=&quot;margin: 0px 0px 0px 4px; font-size: 15px;&quot;&gt;TELEFONO&lt;/p&gt;&lt;p style=&quot;margin: 0px 0px 0px 4px; font-size: 15px;&quot;&gt;&lt;br style=&quot;font-size: 15px;&quot;&gt;&lt;/p&gt;" style="verticalAlign=top;align=left;overflow=fill;fontSize=15;fontFamily=Verdana;html=1;whiteSpace=wrap;fillColor=#008796;strokeColor=#000000;fontColor=#ffffff;strokeWidth=2;" parent="1" vertex="1">
          <mxGeometry x="734" y="138" width="104" height="94" as="geometry" />
        </mxCell>
        <mxCell id="fgJ_T-vyC5k4SfeZIv40-5" value="" style="html=1;verticalAlign=bottom;endArrow=open;dashed=1;endSize=8;curved=0;rounded=0;exitX=1;exitY=0.5;exitDx=0;exitDy=0;entryX=0;entryY=0.5;entryDx=0;entryDy=0;fontColor=#000000;strokeColor=#000000;strokeWidth=2;fontSize=15;fontFamily=Verdana;" parent="1" source="fgJ_T-vyC5k4SfeZIv40-3" target="fgJ_T-vyC5k4SfeZIv40-4" edge="1">
          <mxGeometry relative="1" as="geometry">
            <mxPoint x="591" y="199" as="sourcePoint" />
            <mxPoint x="644" y="200" as="targetPoint" />
          </mxGeometry>
        </mxCell>
        <mxCell id="fgJ_T-vyC5k4SfeZIv40-7" value="&lt;p style=&quot;margin: 4px 0px 0px; text-align: center; font-size: 15px;&quot;&gt;&lt;i style=&quot;font-size: 15px;&quot;&gt;&amp;lt;&amp;lt;enumeration&amp;gt;&amp;gt;&lt;/i&gt;&lt;br style=&quot;font-size: 15px;&quot;&gt;&lt;b style=&quot;font-size: 15px;&quot;&gt;EnMetodosDePago&lt;/b&gt;&lt;/p&gt;&lt;hr style=&quot;font-size: 15px;&quot;&gt;&lt;p style=&quot;margin: 0px 0px 0px 4px; font-size: 15px;&quot;&gt;TARJETA_CREDITO&lt;br style=&quot;font-size: 15px;&quot;&gt;    TARJETA_DEBITO&lt;br style=&quot;font-size: 15px;&quot;&gt;    PAYPAL&lt;br style=&quot;font-size: 15px;&quot;&gt;    STRIPE&lt;br style=&quot;font-size: 15px;&quot;&gt;    TRANSFERENCIA_BANCARIA&lt;br style=&quot;font-size: 15px;&quot;&gt;    EFECTIVO&lt;br style=&quot;font-size: 15px;&quot;&gt;    CRIPTOMONEDAS&lt;br style=&quot;font-size: 15px;&quot;&gt;    PAGO_MOVIL&lt;br style=&quot;font-size: 15px;&quot;&gt;    PAGO_RECURRENTES&lt;br style=&quot;font-size: 15px;&quot;&gt;&lt;/p&gt;" style="verticalAlign=top;align=left;overflow=fill;fontSize=15;fontFamily=Verdana;html=1;whiteSpace=wrap;fontColor=#ffffff;fillColor=#008796;strokeColor=#000000;strokeWidth=2;" parent="1" vertex="1">
          <mxGeometry x="748" y="306" width="243" height="231" as="geometry" />
        </mxCell>
        <mxCell id="fgJ_T-vyC5k4SfeZIv40-10" value="" style="html=1;verticalAlign=bottom;endArrow=open;dashed=1;endSize=8;curved=0;rounded=0;exitX=1;exitY=0.5;exitDx=0;exitDy=0;entryX=0;entryY=0.5;entryDx=0;entryDy=0;fontColor=#000000;strokeColor=#000000;strokeWidth=2;fontSize=15;fontFamily=Verdana;" parent="1" source="fgJ_T-vyC5k4SfeZIv40-6" target="fgJ_T-vyC5k4SfeZIv40-7" edge="1">
          <mxGeometry relative="1" as="geometry">
            <mxPoint x="638" y="250" as="sourcePoint" />
            <mxPoint x="772" y="212" as="targetPoint" />
          </mxGeometry>
        </mxCell>
        <mxCell id="KvDCw4Us0EKXB_KUAqWt-5" value="DetalleFactura" style="swimlane;fontStyle=1;childLayout=stackLayout;horizontal=1;startSize=26;fillColor=#008796;horizontalStack=0;resizeParent=1;resizeParentMax=0;resizeLast=0;collapsible=1;marginBottom=0;whiteSpace=wrap;html=1;points=[[0,0,0,0,0],[0,0.25,0,0,0],[0,0.5,0,0,0],[0,0.75,0,0,0],[0,1,0,0,0],[0.25,0,0,0,0],[0.25,1,0,0,0],[0.5,0,0,0,0],[0.5,1,0,0,0],[0.75,0,0,0,0],[0.75,1,0,0,0],[1,0,0,0,0],[1,0.25,0,0,0],[1,0.5,0,0,0],[1,0.75,0,0,0],[1,1,0,0,0]];fontColor=#ffffff;strokeColor=#000000;fontSize=15;strokeWidth=2;swimlaneFillColor=#F7FCFC;fontFamily=Verdana;" vertex="1" parent="1">
          <mxGeometry x="-310" y="133" width="517" height="212" as="geometry" />
        </mxCell>
        <object label="cliente: Cliente" Total="" id="m5CR8sbhtSTVhbRc3k3T-8">
          <mxCell style="text;strokeColor=none;fillColor=none;align=left;verticalAlign=top;spacingLeft=4;spacingRight=4;overflow=hidden;rotatable=0;points=[[0,0.5],[1,0.5]];portConstraint=eastwest;whiteSpace=wrap;html=1;fontColor=#000000;fontSize=15;fontFamily=Verdana;" parent="KvDCw4Us0EKXB_KUAqWt-5" vertex="1">
            <mxGeometry y="26" width="517" height="26" as="geometry" />
          </mxCell>
        </object>
        <object label="equipo: Equipo" Total="" id="KvDCw4Us0EKXB_KUAqWt-10">
          <mxCell style="text;strokeColor=none;fillColor=none;align=left;verticalAlign=top;spacingLeft=4;spacingRight=4;overflow=hidden;rotatable=0;points=[[0,0.5],[1,0.5]];portConstraint=eastwest;whiteSpace=wrap;html=1;fontColor=#000000;fontSize=15;fontFamily=Verdana;" vertex="1" parent="KvDCw4Us0EKXB_KUAqWt-5">
            <mxGeometry y="52" width="517" height="26" as="geometry" />
          </mxCell>
        </object>
        <object label="estado: EnEstado" Total="" id="KvDCw4Us0EKXB_KUAqWt-11">
          <mxCell style="text;strokeColor=none;fillColor=none;align=left;verticalAlign=top;spacingLeft=4;spacingRight=4;overflow=hidden;rotatable=0;points=[[0,0.5],[1,0.5]];portConstraint=eastwest;whiteSpace=wrap;html=1;fontColor=#000000;fontSize=15;fontFamily=Verdana;" vertex="1" parent="KvDCw4Us0EKXB_KUAqWt-5">
            <mxGeometry y="78" width="517" height="26" as="geometry" />
          </mxCell>
        </object>
        <object label="metodoDePago: EnMetodosDePago" Total="" id="KvDCw4Us0EKXB_KUAqWt-12">
          <mxCell style="text;strokeColor=none;fillColor=none;align=left;verticalAlign=top;spacingLeft=4;spacingRight=4;overflow=hidden;rotatable=0;points=[[0,0.5],[1,0.5]];portConstraint=eastwest;whiteSpace=wrap;html=1;fontColor=#000000;fontSize=15;fontFamily=Verdana;" vertex="1" parent="KvDCw4Us0EKXB_KUAqWt-5">
            <mxGeometry y="104" width="517" height="26" as="geometry" />
          </mxCell>
        </object>
        <object label="detallesDeLaFactura: DetallesFactura" Total="" id="KvDCw4Us0EKXB_KUAqWt-13">
          <mxCell style="text;strokeColor=none;fillColor=none;align=left;verticalAlign=top;spacingLeft=4;spacingRight=4;overflow=hidden;rotatable=0;points=[[0,0.5],[1,0.5]];portConstraint=eastwest;whiteSpace=wrap;html=1;fontColor=#000000;fontSize=15;fontFamily=Verdana;" vertex="1" parent="KvDCw4Us0EKXB_KUAqWt-5">
            <mxGeometry y="130" width="517" height="26" as="geometry" />
          </mxCell>
        </object>
        <object label="detallesDeLaFactura: DetallesFactura" Total="" id="KvDCw4Us0EKXB_KUAqWt-14">
          <mxCell style="text;strokeColor=none;fillColor=none;align=left;verticalAlign=top;spacingLeft=4;spacingRight=4;overflow=hidden;rotatable=0;points=[[0,0.5],[1,0.5]];portConstraint=eastwest;whiteSpace=wrap;html=1;fontColor=#000000;fontSize=15;fontFamily=Verdana;" vertex="1" parent="KvDCw4Us0EKXB_KUAqWt-5">
            <mxGeometry y="156" width="517" height="26" as="geometry" />
          </mxCell>
        </object>
        <mxCell id="KvDCw4Us0EKXB_KUAqWt-15" value="" style="line;strokeWidth=4;fillColor=none;align=left;verticalAlign=middle;spacingTop=-1;spacingLeft=3;spacingRight=3;rotatable=0;labelPosition=right;points=[];portConstraint=eastwest;strokeColor=inherit;fontColor=#000000;fontSize=15;fontFamily=Verdana;" vertex="1" parent="KvDCw4Us0EKXB_KUAqWt-5">
          <mxGeometry y="182" width="517" height="4" as="geometry" />
        </mxCell>
        <mxCell id="KvDCw4Us0EKXB_KUAqWt-16" value="AplicarDescuento()" style="text;strokeColor=none;fillColor=none;align=left;verticalAlign=top;spacingLeft=4;spacingRight=4;overflow=hidden;rotatable=0;points=[[0,0.5],[1,0.5]];portConstraint=eastwest;whiteSpace=wrap;html=1;fontColor=#000000;fontSize=15;fontFamily=Verdana;" vertex="1" parent="KvDCw4Us0EKXB_KUAqWt-5">
          <mxGeometry y="186" width="517" height="26" as="geometry" />
        </mxCell>
        <mxCell id="KvDCw4Us0EKXB_KUAqWt-17" value="" style="html=1;verticalAlign=bottom;endArrow=open;dashed=1;endSize=8;curved=0;rounded=0;exitX=0;exitY=0.5;exitDx=0;exitDy=0;entryX=1;entryY=0.5;entryDx=0;entryDy=0;fontColor=#000000;strokeColor=#000000;strokeWidth=2;fontSize=15;fontFamily=Verdana;" edge="1" parent="1" source="fgJ_T-vyC5k4SfeZIv40-9" target="KvDCw4Us0EKXB_KUAqWt-12">
          <mxGeometry relative="1" as="geometry">
            <mxPoint x="630" y="273" as="sourcePoint" />
            <mxPoint x="744" y="195" as="targetPoint" />
          </mxGeometry>
        </mxCell>
      </root>
    </mxGraphModel>
  </diagram>
</mxfile>
